<svg xmlns="http://www.w3.org/2000/svg" width="1920.001" height="2893.415" viewBox="0 0 1920.001 2893.415">
  <g id="Group_54" data-name="Group 54" transform="translate(0.001)">
    <path id="Path_8" data-name="Path 8" d="M.907,4467.112S444.394,4398.535,392.86,4813.4,233.544,5349.109,235,5496.955,643.948,5617.2,563.689,5939.013.907,6079.309.907,6079.309Z" transform="translate(-0.908 -3371.031)" fill="#b4fdfe"/>
    <path id="Path_5" data-name="Path 5" d="M121.153,3369s105.791,100.869,72.291,224.087-81.078,153.515-38.634,309.3-153.9,251.1-153.9,251.1V3369Z" transform="translate(0 -3369)" fill="#b4fdda"/>
    <path id="Path_6" data-name="Path 6" d="M1920,4231.836s-216.321-203.287-503.65-81.055-377.861-114.022-652.1-13.052-125.784,412.791-71.917,484.428,217.111,147.085,421.28,121.734,356.786-156.253,495.652-16.225S1920,4804.075,1920,4804.075Z" transform="translate(0 -3369)" fill="#b4d8fe"/>
    <path id="Path_7" data-name="Path 7" d="M1101.658,3369s-15.887,126.473,126.768,138.209,297.42-74.031,400.779-36.194,204.335,83.547,179.422,188.838-260.207,314.669-494.491,166.531S1021.468,3677.325,785.511,3719.5s-200.584-111.948-179.677-201.461S703.694,3369,703.694,3369Z" transform="translate(0 -3369)" fill="#b4fdfe"/>
    <path id="Path_9" data-name="Path 9" d="M1985.69,5282.369v747.215s-460.186,377.211-791.7,192.4-142.729-224.224-315.171-569.08,229.9-367.922,486.427-453.754S1985.69,5282.369,1985.69,5282.369Z" transform="translate(-65.689 -3379.54)" fill="#b4fdda"/>
  </g>
</svg>
