<svg width="24" height="24" viewBox="0 0 24 24" fill="none" xmlns="http://www.w3.org/2000/svg" data-reactroot="">
<path fill="#221b38" d="M20.88 6.72C22.76 5 21.7 2 21.7 2C21.7 2 18.7 2 17.65 3.87C17.05 3.65 16.41 3.51 15.74 3.51H12.77C12.12 3.51 11.5 3.64 10.92 3.85C9.86996 2 6.88997 2 6.88997 2C6.88997 2 5.83997 5 7.70997 6.72C7.70997 6.72 7.21996 8.19 7.21996 9.07C7.21996 11.73 9.10996 13.96 11.61 14.5C11.43 14.88 11.33 15.29 11.33 15.73V18.61C10.64 18.77 8.96996 19.39 8.40997 17.68C7.95997 16.31 5.97997 13.74 3.33997 14C2.52997 14.07 1.92997 14.79 2.00997 15.6C2.08997 16.41 2.79997 17.02 3.60997 16.93C3.96997 16.89 5.11997 17.39 5.66997 18.77C6.00997 19.61 6.31996 20.4 6.94997 20.93C7.61997 21.51 8.49996 21.69 9.35996 21.69C9.85996 21.69 11.21 21.62 11.64 21.54C12.12 22.51 17.19 21.86 17.19 20.25V15.72C17.19 15.28 17.08 14.86 16.91 14.49C19.41 13.95 21.3 11.72 21.3 9.06C21.3 8.14 20.88 6.72 20.88 6.72Z" undefined="1"></path>
</svg>
