<svg xmlns="http://www.w3.org/2000/svg" width="1922.319" height="15435.055" viewBox="0 0 1922.319 15435.055">
  <g id="Group_68" data-name="Group 68" transform="translate(0.705)">
    <path id="Path_8" data-name="Path 8" d="M.907,4467.112S444.394,4398.535,392.86,4813.4,233.544,5349.109,235,5496.955,643.948,5617.2,563.689,5939.013.907,6079.309.907,6079.309Z" transform="translate(-0.908 -3371.031)" fill="#b4fdfe"/>
    <path id="Path_5" data-name="Path 5" d="M121.153,3369s105.791,100.869,72.291,224.087-81.078,153.515-38.634,309.3-153.9,251.1-153.9,251.1V3369Z" transform="translate(0 -3369)" fill="#b4fdda"/>
    <path id="Path_6" data-name="Path 6" d="M1920,4231.836s-216.321-203.287-503.65-81.055-377.861-114.022-652.1-13.052-125.784,412.791-71.917,484.428,217.111,147.085,421.28,121.734,356.786-156.253,495.652-16.225S1920,4804.075,1920,4804.075Z" transform="translate(0 -3369)" fill="#b4d8fe"/>
    <path id="Path_7" data-name="Path 7" d="M1101.658,3369s-15.887,126.473,126.768,138.209,297.42-74.031,400.779-36.194,204.335,83.547,179.422,188.838-260.207,314.669-494.491,166.531S1021.468,3677.325,785.511,3719.5s-200.584-111.948-179.677-201.461S703.694,3369,703.694,3369Z" transform="translate(0 -3369)" fill="#b4fdfe"/>
    <path id="Path_9" data-name="Path 9" d="M1985.69,5282.369v747.215s-460.186,377.211-791.7,192.4-142.729-224.224-315.171-569.08,229.9-367.922,486.427-453.754S1985.69,5282.369,1985.69,5282.369Z" transform="translate(-65.689 -3379.54)" fill="#b4fdda"/>
    <path id="Path_102" data-name="Path 102" d="M.907,4467.112S444.394,4398.535,392.86,4813.4,233.544,5349.109,235,5496.955,643.948,5617.2,563.689,5939.013.907,6079.309.907,6079.309Z" transform="translate(-0.908 -273.031)" fill="#b4fdfe"/>
    <path id="Path_103" data-name="Path 103" d="M121.153,3369c31.911,33.8,105.791,100.869,72.291,224.087s-81.078,153.515-38.634,309.3S-.705,4153.347-.705,4153.347L-.15,3369S89.242,3335.2,121.153,3369Z" transform="translate(0 -271)" fill="#b4fdda"/>
    <path id="Path_104" data-name="Path 104" d="M1920,4231.836s-216.321-203.287-503.65-81.055-377.861-114.022-652.1-13.052-125.784,412.791-71.917,484.428,217.111,147.085,421.28,121.734,356.786-156.253,495.652-16.225S1920,4804.075,1920,4804.075Z" transform="translate(0 -271)" fill="#b4d8fe"/>
    <path id="Path_105" data-name="Path 105" d="M1033.98,3346.119c89.565,93.1,51.791,149.354,194.446,161.09s297.42-74.031,400.779-36.194,204.335,83.547,179.422,188.838-260.207,314.669-494.491,166.531S935.545,3686.376,785.511,3719.5s-200.584-111.948-179.677-201.461,88.32-182.175,145.051-204.385S944.416,3253.019,1033.98,3346.119Z" transform="translate(2.34 -203.636)" fill="#b4fdfe"/>
    <path id="Path_106" data-name="Path 106" d="M1985.69,5282.369v747.215s-460.186,377.211-791.7,192.4-142.729-224.224-315.171-569.08,229.9-367.922,486.427-453.754S1985.69,5282.369,1985.69,5282.369Z" transform="translate(-65.689 -281.54)" fill="#b4fdda"/>
    <path id="Path_107" data-name="Path 107" d="M.907,4467.112S444.394,4398.535,392.86,4813.4,233.544,5349.109,235,5496.955,643.948,5617.2,563.689,5939.013.907,6079.309.907,6079.309Z" transform="translate(0.705 2874.849)" fill="#b4fdfe"/>
    <path id="Path_108" data-name="Path 108" d="M121.153,3369c31.911,33.8,105.791,100.869,72.291,224.087s-81.078,153.515-38.634,309.3S-.705,4153.347-.705,4153.347L-.15,3369S89.242,3335.2,121.153,3369Z" transform="translate(1.613 2876.88)" fill="#b4fdda"/>
    <path id="Path_109" data-name="Path 109" d="M1920,4231.836s-216.321-203.287-503.65-81.055-377.861-114.022-652.1-13.052-125.784,412.791-71.917,484.428,217.111,147.085,421.28,121.734,356.786-156.253,495.652-16.225S1920,4804.075,1920,4804.075Z" transform="translate(1.613 2876.88)" fill="#b4d8fe"/>
    <path id="Path_110" data-name="Path 110" d="M1033.98,3346.119c89.565,93.1,51.791,149.354,194.446,161.09s297.42-74.031,400.779-36.194,204.335,83.547,179.422,188.838-260.207,314.669-494.491,166.531S935.545,3686.376,785.511,3719.5s-200.584-111.948-179.677-201.461,88.32-182.175,145.051-204.385S944.416,3253.019,1033.98,3346.119Z" transform="translate(3.953 2944.244)" fill="#b4fdfe"/>
    <path id="Path_111" data-name="Path 111" d="M1985.69,5282.369v747.215s-460.186,377.211-791.7,192.4-142.729-224.224-315.171-569.08,229.9-367.922,486.427-453.754S1985.69,5282.369,1985.69,5282.369Z" transform="translate(-64.076 2866.34)" fill="#b4fdda"/>
    <path id="Path_112" data-name="Path 112" d="M.907,4467.112S444.394,4398.535,392.86,4813.4,233.544,5349.109,235,5496.955,643.948,5617.2,563.689,5939.013.907,6079.309.907,6079.309Z" transform="translate(-0.908 6022.729)" fill="#b4fdfe"/>
    <path id="Path_113" data-name="Path 113" d="M121.153,3369c31.911,33.8,105.791,100.869,72.291,224.087s-81.078,153.515-38.634,309.3S-.705,4153.347-.705,4153.347L-.15,3369S89.242,3335.2,121.153,3369Z" transform="translate(0 6024.76)" fill="#b4fdda"/>
    <path id="Path_114" data-name="Path 114" d="M1920,4231.836s-216.321-203.287-503.65-81.055-377.861-114.022-652.1-13.052-125.784,412.791-71.917,484.428,217.111,147.085,421.28,121.734,356.786-156.253,495.652-16.225S1920,4804.075,1920,4804.075Z" transform="translate(0 6024.76)" fill="#b4d8fe"/>
    <path id="Path_115" data-name="Path 115" d="M1033.98,3346.119c89.565,93.1,51.791,149.354,194.446,161.09s297.42-74.031,400.779-36.194,204.335,83.547,179.422,188.838-260.207,314.669-494.491,166.531S935.545,3686.376,785.511,3719.5s-200.584-111.948-179.677-201.461,88.32-182.175,145.051-204.385S944.416,3253.019,1033.98,3346.119Z" transform="translate(2.34 6092.124)" fill="#b4fdfe"/>
    <path id="Path_116" data-name="Path 116" d="M1985.69,5282.369v747.215s-460.186,377.211-791.7,192.4-142.729-224.224-315.171-569.08,229.9-367.922,486.427-453.754S1985.69,5282.369,1985.69,5282.369Z" transform="translate(-65.689 6014.22)" fill="#b4fdda"/>
    <path id="Path_117" data-name="Path 117" d="M.907,4467.112S444.394,4398.535,392.86,4813.4,233.544,5349.109,235,5496.955,643.948,5617.2,563.689,5939.013.907,6079.309.907,6079.309Z" transform="translate(0.705 9170.608)" fill="#b4fdfe"/>
    <path id="Path_118" data-name="Path 118" d="M121.153,3369c31.911,33.8,105.791,100.869,72.291,224.087s-81.078,153.515-38.634,309.3S-.705,4153.347-.705,4153.347L-.15,3369S89.242,3335.2,121.153,3369Z" transform="translate(1.613 9172.64)" fill="#b4fdda"/>
    <path id="Path_119" data-name="Path 119" d="M1920,4231.836s-216.321-203.287-503.65-81.055-377.861-114.022-652.1-13.052-125.784,412.791-71.917,484.428,217.111,147.085,421.28,121.734,356.786-156.253,495.652-16.225S1920,4804.075,1920,4804.075Z" transform="translate(1.613 9172.64)" fill="#b4d8fe"/>
    <path id="Path_120" data-name="Path 120" d="M1033.98,3346.119c89.565,93.1,51.791,149.354,194.446,161.09s297.42-74.031,400.779-36.194,204.335,83.547,179.422,188.838-260.207,314.669-494.491,166.531S935.545,3686.376,785.511,3719.5s-200.584-111.948-179.677-201.461,88.32-182.175,145.051-204.385S944.416,3253.019,1033.98,3346.119Z" transform="translate(3.953 9240.004)" fill="#b4fdfe"/>
    <path id="Path_121" data-name="Path 121" d="M1985.69,5282.369v747.215s-460.186,377.211-791.7,192.4-142.729-224.224-315.171-569.08,229.9-367.922,486.427-453.754S1985.69,5282.369,1985.69,5282.369Z" transform="translate(-64.076 9162.1)" fill="#b4fdda"/>
  </g>
</svg>
